<?xml version="1.0" standalone="no"?><svg xmlns="http://www.w3.org/2000/svg" viewBox="0 0 1440 320"><path fill="#273036" fill-opacity="0.6" d="M0,64L34.3,101.3C68.6,139,137,213,206,224C274.3,235,343,181,411,160C480,139,549,149,617,165.3C685.7,181,754,203,823,208C891.4,213,960,203,1029,208C1097.1,213,1166,235,1234,208C1302.9,181,1371,107,1406,69.3L1440,32L1440,320L1405.7,320C1371.4,320,1303,320,1234,320C1165.7,320,1097,320,1029,320C960,320,891,320,823,320C754.3,320,686,320,617,320C548.6,320,480,320,411,320C342.9,320,274,320,206,320C137.1,320,69,320,34,320L0,320Z"></path></svg>