<?xml version="1.0" standalone="no"?><svg xmlns="http://www.w3.org/2000/svg" viewBox="0 0 1440 320"><path fill="#212529" fill-opacity="1" d="M0,192L34.3,208C68.6,224,137,256,206,224C274.3,192,343,96,411,74.7C480,53,549,107,617,154.7C685.7,203,754,245,823,234.7C891.4,224,960,160,1029,138.7C1097.1,117,1166,139,1234,170.7C1302.9,203,1371,245,1406,266.7L1440,288L1440,320L1405.7,320C1371.4,320,1303,320,1234,320C1165.7,320,1097,320,1029,320C960,320,891,320,823,320C754.3,320,686,320,617,320C548.6,320,480,320,411,320C342.9,320,274,320,206,320C137.1,320,69,320,34,320L0,320Z"></path></svg>