<?xml version="1.0" encoding="utf-8"?>
<!-- Generator: Adobe Illustrator 23.1.0, SVG Export Plug-In . SVG Version: 6.00 Build 0)  -->
<svg version="1.1" id="Layer_1" xmlns="http://www.w3.org/2000/svg" xmlns:xlink="http://www.w3.org/1999/xlink" x="0px" y="0px"
	 viewBox="0 0 1267.6 1000" style="enable-background:new 0 0 1267.6 1000;" xml:space="preserve">
<style type="text/css">
	.st0{fill:#CCE6F0;}
	.st1{fill:#E48875;}
	.st2{fill:#D6715C;}
	.st3{fill:#F4E4DB;}
	.st4{fill:#555A9E;}
	.st5{fill:#3D2D2E;}
	.st6{fill:#80493E;}
	.st7{fill:#3D4285;}
	.st8{fill:#E0CCC1;}
</style>
<title>Asset 1</title>
<g>
	<g id="Layer_1-2">
		<path class="st0" d="M1262.2,825c-48.6-1.5-78,3.9-115.7,0c-23.3-2.4-46.7-3.6-70.1-3.6h-14.6l-21.4,0.6h-5.1l-10.1,0.6
			c-34.9,1.9-69.9,4.5-105,5.1s-74.8,0.4-112.3-0.2c-151.3-2.4-254.2-30.4-453.2-12.9c-22.3,1.9-44.6,2.4-66.9,2.1l-24.6-0.6h-1.7
			l-14.1-0.4c-49.1-1.7-98.4-4.1-147.2,1.9c-1.1,0.4-1.8,1.6-1.5,2.8l0,0l-12.9,21l-33.4,55.3L0.2,982.1c-0.5,1.1,0,2.3,1,2.8
			c0.1,0.1,0.3,0.1,0.5,0.2h105.4c55.3-0.3,110.6-1.1,165.9-2.4c45.2-1.3,90.4-2.1,135.7-5.8c45.2-3.6,87-14.8,130.7-16.1
			s86.6,14.1,130.3,17.4s88.1-0.2,132,2.1c43.9,2.4,88.5,10.7,132.9,15.9s89.4,4.5,134.4,0.9l75.4-6.4l37.7-3.4
			c8.1-0.6,16.9-0.9,23.6-7.3c6.6-6.4,10.7-20.4,14.6-30.4l15.4-40.1c10.7-27.2,21.2-54.4,31.7-81.6
			C1268.2,825.9,1267.2,824.6,1262.2,825z"/>
		<path class="st1" d="M425.4,371.6l-18.4-15l-8.1-6.6c-32.1-25.9-83.1-66.9-97.9-75.4c-21.9-12.9-25.5-12.2-40.1-22.9
			c-14.6-10.7-73.7-62.4-80.1-64.3h-0.2c-8.8-1.3,3.2-31.5,16.5-25.1l0,0c12.2,5.8,66.9,35.4,86.4,48c19.5,12.6,24.4,15.2,40.5,28.5
			c16.1,13.3,78.9,42.4,105.7,72.4C432.4,314.6,425.4,371.6,425.4,371.6z"/>
		<path class="st1" d="M229.5,180l-75.9-46.5c-16.3-9.9-34.9-17.4-42.2-17.8s-5.1,4.5-5.1,4.5c0.9,2.5,1.4,5.1,1.7,7.7
			c0.6,9,37.7,26.6,37.7,32.1c0,5.6-16.3-13.1-22.5-15.9s-9.4,4.1,4.7,15s30,31.7,38.4,28.5c8.4-3.2,28.5,2.6,28.5,2.6L229.5,180z"
			/>
		<path class="st2" d="M324.4,264.9l-8.4-18.2c-0.8-1-2.3-1.1-3.3-0.3c-0.7,0.6-1,1.5-0.7,2.4l8.4,18c0.9,1,2.4,1,3.3,0.1
			C324.3,266.4,324.6,265.6,324.4,264.9z"/>
		<path class="st1" d="M783.9,122.4c0,0-10.5-16.5-15.6-18.2s-29.8,9-37.5,0.9c-7.7-8.1,2.4-30.2-2.8-46.7s-17.8-46.9-23.6-48
			c-5.8-1.1-7.7-7.9-1.5-10.1s35.1,13.3,48.2,27.2s37.3,40.7,46.3,53.4c4.8,6.8,9.1,13.9,13.1,21.2L783.9,122.4z"/>
		<path class="st2" d="M771.3,98.8c-4.1-2.5-6.9-6.8-7.3-11.6c-0.2-2.6,3.9-2.4,4.1,0c0.2,3.5,2.2,6.6,5.4,8.1
			C775.5,96.6,773.4,100.1,771.3,98.8z"/>
		<path class="st3" d="M430.1,305.2c0,0-78.9-60.6-89.1-55.1s-16.3,28.3-22.7,37.7c-6.4,9.4,58.7,60.4,72.4,70.9
			c13.7,10.5,36.2,33.9,36.2,33.9l28.1-38.8L430.1,305.2z"/>
		<path class="st1" d="M563,317.6c5.1,4.3,35.1,17.8,57.2,17.8c13.3,0,26.4-1.8,39.2-5.4l9.2,82.5c-17.3,10.5-37,16.4-57.2,17.1
			c-32.1,0.4-67.9-7.9-67.9-7.9L540,330L563,317.6z"/>
		<path class="st1" d="M700.3,603.5c-5.1,1.1-20.1-0.2-25.7,17.1c-3,9.6-3,36-3.2,62.6c-0.2,40.5,9,153.2,4.3,156.9
			c-25.1,20.1-66.9,27.9-72.2,34.1s-12.4,16.1-5.4,18.6s45.6,0.6,81.9-4.1c17.6-2.1,33.4,0,38.6-4.1c14.8-11.8,1.9-40.3,1.7-57.4
			c-1.9-76.7,7.9-87.2,11.8-111.7c6.2-37.7,2.8-86.8,2.8-86.8L700.3,603.5z"/>
		<path class="st2" d="M701.6,860c5.8-5,6.5-13.8,1.5-19.6c-0.3-0.4-0.7-0.8-1.1-1.1c-1.7-1.7,1.3-4.3,3-2.6
			c7,6.8,7.1,17.9,0.3,24.8c-0.4,0.5-0.9,0.9-1.4,1.3C702.3,864.5,699.7,861.5,701.6,860z"/>
		<path class="st2" d="M597.9,882.3c4.3-4.5,10.5-6.7,16.7-6c1.1,0.1,1.9,1,1.8,2c-0.1,1.1-1,1.9-2,1.8c-5.2-0.7-10.4,1.3-13.9,5.1
			C598.7,887,596.2,884,597.9,882.3z"/>
		<path class="st4" d="M643.3,333.7c0,0,44.4-27.6,81-10.3c36.6,17.4,37.3,40.5,39.4,60s-8.6,70.3-10.3,91.3
			c-2.4,28.5-18.4,153.2-15.4,171.7c3,18.4-10.7,100.7-11.8,109.7c-1.5,13.5-24,19.1-45.4,19.1c-28.9,0-25.9-171.9-27-190.3
			c-3.2-54.9-19.3-149.6-17.1-186.4C638.4,366.4,643.3,333.7,643.3,333.7z"/>
		<path class="st1" d="M435.7,274.7c1.1-7.3,22.9-56.6,13.3-81.2c-6.9-17.8-31.5-18.4-76.5-18c-17.8,0-20.4,45.6-20.1,51.4
			s-0.6,45.6,6.6,48.4c13.7,4.7,22.3,3.4,25.5,5.1s42.2,56.4,42.2,56.4s47.6-24.9,51-25.1C481.1,311.6,434.6,281.8,435.7,274.7z"/>
		<path class="st1" d="M353.8,223.9c0,0-10.3,12-10.1,15.2c0.2,3.2,9.6,4.5,9.6,4.5L353.8,223.9z"/>
		<path class="st2" d="M354.9,249c0.7-0.8,1.9-0.9,2.7-0.3c0,0,0,0,0.1,0.1c1.7,0.8,3.7,0.8,5.4,0c2.1-1.1,3.6,2.8,1.3,3.9
			c-3,1.2-6.5,0.9-9.2-0.9C354.3,251.1,354.1,249.9,354.9,249C354.8,249.1,354.8,249,354.9,249z"/>
		<path class="st5" d="M360.4,216c0.2-0.6,1.1-0.9,1.7-0.9s1.7,0,1.9,0.9c1,2.5,1,5.2,0,7.7c-0.4,1.3-3.4,1.3-3.6,0.2
			C359.8,221.3,359.8,218.6,360.4,216z"/>
		<path class="st6" d="M360,186c3.5,7.9,10.3,14,18.6,16.5c14.4,4.7,14.6,18.2,22.9,19.5c8.4,1.3,18,2.1,18.2,11.8
			c0.2,9.6-0.4,17.8,3.2,24.2c3.7,5.9,8,11.5,12.6,16.7c0,0,16.7-21.4,20.8-43.7c4.1-22.3,4.5-44.6-10.3-53.1
			c-14.8-8.6-52.7-17.6-67.5-11.8C369.8,169.6,362.9,176.9,360,186z"/>
		<path class="st6" d="M360,186c0,0-14.4-13.7-5.6-24.6c8.8-10.9,10.1-1.9,25.5-5.1c15.4-3.2,14.1-11.4,27.2-10.1
			c9.2,0.9,14.1,15.2,24.9,15.2c10.7,0,15.4-8.8,22.9,2.8c7.5,11.6,4.7,9.2,9.6,23.8s5.8,27.9,2.1,36s-14.4,21.4-14.4,21.4
			s-57.4-62.1-58.7-62.1L360,186z"/>
		<path class="st3" d="M432.4,294.9c-13.9,14.1-32.4,45.2-17.4,77.6c15,32.4,19.3,42.9,51,49.5s56.6-0.2,77.4,5.6
			c20.8,5.8,27.4-9.2,27.4-40.9s26.6-49.9,15.9-63.2s-58.3-31.7-90-41.8C465,271.5,444.2,283.3,432.4,294.9z"/>
		<path class="st4" d="M651,329.6c0,0,23.1-25.7,84.9-31.9c32.1-3.4,99-21.4,108-27.9c9-6.4-68.6-135.4-67.9-151.7
			s27.2-29.8,32.4-27.2s148.3,177.7,134.2,202.1c-14.1,24.4-101.2,81-149.2,96c-48,15-80.1,20.6-83.4,20.6s-29.1-49.1-31.1-49.7
			S651,329.6,651,329.6z"/>
		<path class="st1" d="M503.6,315c0,0,82.3-106.1,95.6-116.8c19.9-15.9,23.6-15.9,36.4-28.5c12.9-12.6,63.6-72.4,69.9-75.2h0.2
			c8.6-2.8-7.7-30.6-19.9-22.5l0,0c-11.1,7.5-60.9,44.8-78.4,60.2c-17.6,15.4-21.9,18.4-35.8,34.1S473.2,243,451.1,276.4
			C448.5,280.3,503.6,315,503.6,315z"/>
		<path class="st1" d="M675.5,80.3c0,0,33.2-38.6,47.1-50.1s18.2-13.7,25.3-15.2s14.6,6,14.6,6s1.5,8.4,1.7,12.6
			c0.4,9.2-28.9,23.4-28.1,28.7s14.1-15.2,19.9-18.9c5.8-3.6,9.9,2.6-2.6,15.4c-12.4,12.9-24.9,35.8-33.6,33.9
			c-8.8-1.9-27.9,6.9-27.9,6.9L675.5,80.3z"/>
		<path class="st2" d="M574.5,192.2l5.8-19.3c0.6-2.8,5.1-1.5,4.3,1.5l-5.8,19.1c-0.4,1.2-1.6,1.9-2.8,1.5
			C574.8,194.6,574.2,193.4,574.5,192.2z"/>
		<path class="st3" d="M424.5,321.2c-2.3-17.8,4.9-35.6,19.1-46.7c10.1-7.7,19.8-15.9,28.9-24.6c40.9-43.3,64.7-78.4,98.6-52.3
			c19.7,15.2,14.1,28.9,0.4,47.8c-9,12.6-68.6,86.8-72.2,91.5c-3.6,4.7-72.6,0-72.6,0L424.5,321.2z"/>
		<path class="st2" d="M763.1,67.7c-1.3-3.3-4.7-5.2-8.1-4.5c-4.1,0.4-7.9,2.6-11.6,4.1l-2.1,0.6c7.9-6.7,15-14.4,21-22.9
			c1.3-1.9-2.1-4.1-3.4-1.9c-8,11.1-17.6,20.9-28.7,28.9l-0.9,1.1c-0.9,1.5,0.2,3.9,2.1,3l13.1-4.9l6.4-2.6l2.6-1.1
			c4.1-1.7,10.1,1.9,3,7.1c-1.7,2.4-7.7,3.9-10.3,4.9l-12.4,5.6c-2.4,1.1-0.2,4.5,1.9,3.4c7.3-3.2,15.4-6,22.3-10.1
			C761.4,76.3,764.6,72.2,763.1,67.7z"/>
		<path class="st2" d="M759.5,29.8c-10,6-19.5,12.7-28.5,20.1c-1.9,1.7,0.9,4.5,2.8,2.8c8.7-7.2,17.9-13.7,27.6-19.5
			c0.9-0.5,1.3-1.7,0.8-2.7C761.6,29.6,760.4,29.2,759.5,29.8L759.5,29.8z"/>
		<path class="st2" d="M755.2,21.8c-8.3,3.7-16.2,8.4-23.4,13.9c-2.1,1.5-0.2,4.9,1.9,3.4c7.2-5.6,15-10.2,23.4-13.9
			C759.5,24.2,757.5,20.8,755.2,21.8z"/>
		<path class="st2" d="M738,18l-15.2,9.4c-2.1,1.3-0.2,4.7,1.9,3.4l15.2-9.4C742.1,19.9,740.2,16.5,738,18z"/>
		<path class="st7" d="M757.5,395.8c-26.7,25.7-61.1,41.9-97.9,46.1c-2.6,0.2-2.6,4.3,0,3.9c29.8-3.1,58.3-14.2,82.5-31.9
			c-15.6,21-36.7,37.3-60.9,47.1c-2.4,1.1-1.3,4.9,1.1,3.9c27-11,50.2-29.7,66.6-53.8c0.5-0.6,0.5-1.6-0.2-2.1c0,0,0,0,0,0
			c4.1-3.4,7.9-6.6,11.6-10.3c0.8-0.8,0.8-2,0-2.8C759.6,395,758.3,395,757.5,395.8L757.5,395.8z"/>
		<path class="st7" d="M756,300c-1.7-1.7-4.5,1.1-2.8,2.8c5.7,5.2,8.6,12.9,7.9,20.6c-2.5-10.7-9.6-19.7-19.5-24.4
			c-2.4-1.1-4.5,2.4-2.1,3.4c9.7,4.5,16.6,13.5,18.4,24c0.2,1.7,2.6,1.7,3.4,0.4c0.6,0.9,1.8,1.1,2.7,0.4c0.4-0.3,0.6-0.6,0.7-1.1
			C766.6,316.5,763.2,306.7,756,300z"/>
		<path class="st7" d="M886.3,265.5c-10.3-3.8-21.5-4.5-32.1-1.9c-1.1,0.3-1.7,1.4-1.4,2.5c0.3,1.1,1.4,1.7,2.5,1.4
			c10-2.4,20.4-1.7,30,1.9C887.6,270.2,888.7,266.4,886.3,265.5z"/>
		<path class="st7" d="M878.4,277.5l-20.8-8.8c-2.4-0.9-3.4,3-1.1,3.9l20.8,8.8C879.7,282.2,880.8,278.6,878.4,277.5z"/>
		<path class="st7" d="M725.8,677.4c-4.3,26.5-16.8,50.9-35.6,70.1c-1.9,1.7,0.9,4.5,2.8,2.8c19.3-19.6,32.1-44.7,36.6-71.8
			C730.1,675.9,726.3,674.8,725.8,677.4z"/>
		<path class="st7" d="M711.3,730.3c-3.8,11.5-10.7,21.8-19.9,29.6c-1.9,1.7,1.1,4.5,3,2.8c9.6-8.4,16.8-19.2,20.8-31.3
			C716,728.8,712.1,728,711.3,730.3z"/>
		<path class="st2" d="M581.8,420.9H576c-1.1,0-1.9,0.9-1.9,1.9s0.9,1.9,1.9,1.9h5.8c1.1,0,1.9-0.9,1.9-1.9S582.9,420.9,581.8,420.9
			L581.8,420.9z"/>
		<path class="st8" d="M523.1,305.6c-19.7,21.6-71.8,40.9-90.2,6.9c-1.1-2.4-4.5-0.2-3.4,1.9c19.7,36.4,74.8,17.6,96.4-6
			C527.6,306.4,524.8,303.7,523.1,305.6z"/>
		<path class="st8" d="M413.8,357.9c-4.2-12.3-5.4-25.3-3.6-38.1c0.4-2.6-3.6-2.6-3.9,0c-1.9,13.2-0.7,26.6,3.6,39.2
			C410.8,361.3,414.7,360.4,413.8,357.9z"/>
		<path class="st8" d="M532.1,285c-16.7,18.6-42.4,19.7-65.8,19.9c-1.1,0-1.9,0.9-1.9,1.9c0,1.1,0.9,1.9,1.9,1.9
			c24.4-0.2,51-1.5,68.8-21C536.8,285.9,533.8,283.1,532.1,285z"/>
		<path class="st8" d="M515.6,288.7l-24.2,3.4c-2.6,0.2-1.5,4.1,1.1,3.9l24.2-3.4C519.2,292.3,518.2,288.4,515.6,288.7z"/>
		<path class="st8" d="M533.4,307.5c-0.4,13.8-4.8,27.1-12.4,38.6c-1.5,2.1,1.9,4.1,3.4,1.9c8-12,12.5-26.1,13.1-40.5
			C537.7,304.9,533.6,304.9,533.4,307.5z"/>
		<path class="st8" d="M543,313.1c-0.2-2.6-4.1-2.6-3.9,0c0.8,8.1-0.2,16.2-3,23.8c-0.9,2.4,3,3.4,3.9,1.1
			C542.9,330,544,321.5,543,313.1z"/>
		<path class="st8" d="M383.8,284.6c-1.3-2.1-4.7-0.2-3.4,1.9c9.1,16.4,13.7,34.9,13.3,53.6c0,1.1,0.9,1.9,1.9,1.9
			c1.1,0,1.9-0.9,1.9-1.9C398,320.7,393.2,301.5,383.8,284.6z"/>
	</g>
</g>
</svg>
